# xmcd
#
# Track frame offsets: 
#        150
#        18495
#        29371
#        45486
#        65515
#        82703
#        90613
#        105051
#        119298
#        131088
#        143994
#        157084
#        178260
#        192077
#        204994
#        221307
#        238398
#        251306
#        263313
#        283718
#
# Disc length: 3994 seconds
#
# Revision: 0
# Processed by: cddbd v1.5.2PL0 Copyright (c) Steve Scherf et al.
# Submitted via: ExactAudioCopy v0.99pb5
#
DISCID=0d0f9814
DTITLE=Fernando Henrique E Fabiano - Fernando Henrique E Fabiano
DYEAR=2010
DGENRE=Sertanejo
TTITLE0=24 Horas De Amor - Boate Azul
TTITLE1=Me Ama
TTITLE2=Sedex
TTITLE3=Não Aprendi Dizer Adeus - Só Fazendo Amor - Pense Em Mim
TTITLE4=Pagode Em Brasília - Pagode Dia De Visita
TTITLE5=Cuitelinho - Meu Reino Encantado
TTITLE6=Indecisão
TTITLE7=Vamos Fazer A Festa - Barquinho
TTITLE8=Agita Ai
TTITLE9=Vamos Ser Feliz
TTITLE10=Querendo Te Amar - Tem Nada A Ver
TTITLE11=Eu Sem Você - Nova York
TTITLE12=Não Dá
TTITLE13=O Amor É Assim
TTITLE14=Bala De Prata
TTITLE15=Nunca Amei Ninguem Assim
TTITLE16=Clube Do Batidão
TTITLE17=Minha Rainha
TTITLE18=Faz Um Milagre Em Mim
TTITLE19=Tocando Em Frente
EXTD=
EXTT0=
EXTT1=
EXTT2=
EXTT3=
EXTT4=
EXTT5=
EXTT6=
EXTT7=
EXTT8=
EXTT9=
EXTT10=
EXTT11=
EXTT12=
EXTT13=
EXTT14=
EXTT15=
EXTT16=
EXTT17=
EXTT18=
EXTT19=
PLAYORDER=
